<svg width="256" height="94" viewBox="0 0 256 94" fill="none" xmlns="http://www.w3.org/2000/svg">
<g filter="url(#filter0_ii_4953_9443)">
<path d="M12.8403 4.16269C11.2152 7.80678 7.70472 12.027 1.3789 12.027L1.37907 80.947C8.45319 80.947 11.7912 85.3369 13.1198 89.2495C13.809 91.2791 15.5427 92.9998 17.6862 92.9998L251 92.9998C253.209 92.9998 255 91.2089 255 88.9998L255 4.99998C255 2.79084 253.209 0.999989 251 0.999989L17.1804 0.999992C15.2514 0.999992 13.626 2.40095 12.8403 4.16269Z" fill="white"/>
</g>
<path d="M12.8403 4.16269C11.2152 7.80678 7.70472 12.027 1.3789 12.027L1.37907 80.947C8.45319 80.947 11.7912 85.3369 13.1198 89.2495C13.809 91.2791 15.5427 92.9998 17.6862 92.9998L251 92.9998C253.209 92.9998 255 91.2089 255 88.9998L255 4.99998C255 2.79084 253.209 0.999989 251 0.999989L17.1804 0.999992C15.2514 0.999992 13.626 2.40095 12.8403 4.16269Z" stroke="url(#paint0_linear_4953_9443)"/>
<defs>
<filter id="filter0_ii_4953_9443" x="-1.15665" y="0.5" width="258.692" height="95.0354" filterUnits="userSpaceOnUse" color-interpolation-filters="sRGB">
<feFlood flood-opacity="0" result="BackgroundImageFix"/>
<feBlend mode="normal" in="SourceGraphic" in2="BackgroundImageFix" result="shape"/>
<feColorMatrix in="SourceAlpha" type="matrix" values="0 0 0 0 0 0 0 0 0 0 0 0 0 0 0 0 0 0 127 0" result="hardAlpha"/>
<feOffset dx="2.03556" dy="2.03556"/>
<feGaussianBlur stdDeviation="1.01778"/>
<feComposite in2="hardAlpha" operator="arithmetic" k2="-1" k3="1"/>
<feColorMatrix type="matrix" values="0 0 0 0 1 0 0 0 0 1 0 0 0 0 1 0 0 0 0.25 0"/>
<feBlend mode="normal" in2="shape" result="effect1_innerShadow_4953_9443"/>
<feColorMatrix in="SourceAlpha" type="matrix" values="0 0 0 0 0 0 0 0 0 0 0 0 0 0 0 0 0 0 127 0" result="hardAlpha"/>
<feOffset dx="-2.03556" dy="2.03556"/>
<feGaussianBlur stdDeviation="1.01778"/>
<feComposite in2="hardAlpha" operator="arithmetic" k2="-1" k3="1"/>
<feColorMatrix type="matrix" values="0 0 0 0 1 0 0 0 0 1 0 0 0 0 1 0 0 0 0.25 0"/>
<feBlend mode="normal" in2="effect1_innerShadow_4953_9443" result="effect2_innerShadow_4953_9443"/>
</filter>
<linearGradient id="paint0_linear_4953_9443" x1="255" y1="47" x2="-1.5" y2="47" gradientUnits="userSpaceOnUse">
<stop stop-color="#AEAEAE"/>
<stop offset="1" stop-color="#D6D6D6"/>
</linearGradient>
</defs>
</svg>
