<svg width="312" height="64" viewBox="0 0 312 64" fill="none" xmlns="http://www.w3.org/2000/svg">
<path d="M310.533 19.0286C310.533 18.4288 311.12 17.9138 312 17.6245V15.2539C311.127 14.9646 310.533 14.4496 310.533 13.8499C310.533 13.2501 311.12 12.7351 312 12.4458V9.99757C306.109 9.99757 301.338 5.51736 301.338 0H10.6616C10.6616 5.52442 5.88381 9.99757 0 9.99757V12.4317C0.895363 12.7139 1.50481 13.2431 1.50481 13.8499C1.50481 14.4566 0.895363 14.9787 0 15.268V17.6175C0.895363 17.8997 1.50481 18.4288 1.50481 19.0356C1.50481 19.6424 0.895363 20.1645 0 20.4538V22.8032C0.895363 23.0854 1.50481 23.6146 1.50481 24.2214C1.50481 24.8281 0.895363 25.3502 0 25.6395V27.989C0.895363 28.2712 1.50481 28.8004 1.50481 29.4071C1.50481 30.0139 0.895363 30.536 0 30.8253V33.1747C0.895363 33.457 1.50481 33.9861 1.50481 34.5929C1.50481 35.1996 0.895363 35.7218 0 36.011V38.3605C0.895363 38.6427 1.50481 39.1719 1.50481 39.7786C1.50481 40.3854 0.895363 40.9075 0 41.1968V43.5462C0.895363 43.8285 1.50481 44.3576 1.50481 44.9644C1.50481 45.5712 0.895363 46.0933 0 46.3825V48.732C0.895363 49.0142 1.50481 49.5434 1.50481 50.1502C1.50481 50.7569 0.895363 51.279 0 51.5683V54.0024C5.89134 54.0024 10.6616 58.4826 10.6616 64H301.331C301.331 58.4756 306.109 54.0024 311.992 54.0024V51.5542C311.12 51.2649 310.525 50.7499 310.525 50.1502C310.525 49.5504 311.112 49.0354 311.992 48.7461V46.3755C311.12 46.0862 310.525 45.5712 310.525 44.9715C310.525 44.3717 311.112 43.8567 311.992 43.5674V41.1968C311.12 40.9075 310.525 40.3925 310.525 39.7927C310.525 39.193 311.112 38.678 311.992 38.3887V36.0181C311.12 35.7288 310.525 35.2138 310.525 34.614C310.525 34.0143 311.112 33.4993 311.992 33.21V30.8394C311.12 30.5501 310.525 30.0351 310.525 29.4353C310.525 28.8356 311.112 28.3206 311.992 28.0313V25.6607C311.12 25.3714 310.525 24.8564 310.525 24.2566C310.525 23.6569 311.112 23.1419 311.992 22.8526V20.482C311.12 20.1927 310.525 19.6777 310.525 19.0779L310.533 19.0286Z" fill="url(#paint0_linear_4953_9122)"/>
<path d="M297.485 59.993L13.5153 59.994C13.5153 55.6093 9.70066 52.051 5 52.051V11.944C9.70066 11.944 13.5153 8.38574 13.5153 4.001L297.485 4C297.485 8.38474 301.299 11.943 306 11.943V52.057C301.299 52.057 297.485 55.6153 297.485 60V59.993Z" stroke="url(#paint1_linear_4953_9122)" stroke-miterlimit="10"/>
<defs>
<linearGradient id="paint0_linear_4953_9122" x1="2.88034e-07" y1="31.7495" x2="312" y2="31.7495" gradientUnits="userSpaceOnUse">
<stop stop-color="#FEBB28"/>
<stop offset="0.265" stop-color="#FEAB0B"/>
<stop offset="0.72" stop-color="#FEDE6D"/>
<stop offset="1" stop-color="#FEAB0B"/>
</linearGradient>
<linearGradient id="paint1_linear_4953_9122" x1="5" y1="32" x2="306" y2="32" gradientUnits="userSpaceOnUse">
<stop stop-color="#EB7E30"/>
<stop offset="0.275" stop-color="#DF7E25"/>
<stop offset="0.675" stop-color="#FEBA0B"/>
<stop offset="1" stop-color="#D8692A"/>
</linearGradient>
</defs>
</svg>
